<?xml version="1.0" standalone="no"?>
<!DOCTYPE svg PUBLIC "-//W3C//DTD SVG 20010904//EN"
 "http://www.w3.org/TR/2001/REC-SVG-20010904/DTD/svg10.dtd">
<svg version="1.0" xmlns="http://www.w3.org/2000/svg"
 width="400.000000pt" height="400.000000pt" viewBox="0 0 400.000000 400.000000"
 preserveAspectRatio="xMidYMid meet">
<metadata>
Created by potrace 1.14, written by Peter Selinger 2001-2017
</metadata>
<g transform="translate(0.000000,400.000000) scale(0.100000,-0.100000)"
fill="#000000" stroke="none">
<path d="M1775 3205 c-82 -41 -154 -76 -160 -78 -6 -3 -4 -14 4 -28 166 -272
278 -480 362 -671 l34 -77 155 81 c85 44 159 84 164 88 9 9 -144 331 -221 465
-42 74 -183 296 -187 294 0 0 -68 -34 -151 -74z"/>
<path d="M3127 3193 c-3 -5 -8 -39 -12 -78 -3 -38 -20 -149 -36 -245 -99 -587
-272 -1023 -521 -1311 -216 -252 -614 -483 -1093 -636 -77 -25 -148 -48 -157
-51 -25 -10 223 -298 253 -294 49 6 308 111 474 192 752 367 1127 852 1339
1730 36 147 86 405 86 441 0 11 18 37 40 59 72 70 61 79 -179 149 -186 55
-188 55 -194 44z"/>
<path d="M873 2992 c-78 -43 -145 -80 -148 -83 -2 -3 25 -57 61 -120 78 -137
236 -454 298 -599 25 -58 49 -104 53 -103 5 1 79 38 165 83 l156 81 -41 92
c-118 263 -368 727 -392 727 -5 0 -74 -35 -152 -78z"/>
</g>
</svg>
